<svg height="2722.667" viewBox="0 0 2042 2042" width="2722.667" xmlns="http://www.w3.org/2000/svg"><path d="m742.2 119.2c-3.9 2.5-94.1 100.7-367.4 400.1-320.5 350.9-362.7 397.6-366 404-7.2 13.9-8.3 18.6-8.3 34.2v14l121.8 454c96.1 358.3 122.5 455.5 125.2 461 6.8 13.7 17 23.9 31 30.8 9.5 4.8 18.2 6.7 29.9 6.7 11.6 0 1.4 2.5 117.1-28.5 807.7-216.3 1566.4-419.8 1570.2-421.1 14.6-4.9 30.7-18.6 37.5-31.9 6.4-12.6 7.3-16.5 7.3-32v-14l-121.4-452.5c-66.7-248.9-122.2-454.8-123.2-457.6-4.4-11.8-13.1-22.6-25.6-31.5l-8.3-6-501.7-166.5c-554.7-183.9-508.2-169.3-518.1-163.2zm479 198.8c237.9 78.9 432.3 143.8 432 144.1-.4.3-8.6 2.7-18.2 5.2s-355.9 95.3-769.4 206.1c-413.6 110.9-752.1 201.4-752.2 201.3-.2-.1 145.4-159.8 323.4-354.8l323.7-354.6 14 4.7c7.7 2.5 208.7 69.1 446.7 148zm523.7 175.4c2.2 1.6 5 4.3 6.1 6.1 2.8 4.6 244 905.4 244 911.3-.1 9.6-6.6 17.8-16.5 20.6-3.8 1.1-1519.8 407.5-1641.6 440-13.5 3.6-26.6 6.6-29 6.6-4.2 0-10.7-2.4-13.9-5.2-.9-.7-2.5-2.7-3.7-4.4-2.8-4-244.3-904.6-244.3-911.1 0-7.6 4.6-15.5 11-18.8 1.4-.7 38.1-10.8 81.5-22.5 43.5-11.6 418.5-112.2 833.5-223.5 700.6-187.9 755-202.4 761.6-202.2 6 .2 7.7.7 11.3 3.1z"/><path d="m1220.8 900.1c-14.6 1.1-33.7 5.1-49.4 10.4-72.9 24.3-126 85.8-140.5 162.9-3 16-3.7 44.8-1.5 62.3 12.2 95.7 86.5 170.2 182 182.8 14.9 1.9 39.2 1.9 54.1 0 60-7.9 114.4-41.9 147.7-92.3 3.7-5.7 6.8-10.7 6.8-11.1s-6.2-4.2-13.7-8.6c-7.6-4.3-14.8-8.5-15.9-9.2-2-1.3-2.3-1.1-4.9 3.2-9.6 16.5-30.1 38.3-47.5 50.7-10.7 7.6-31.5 18.3-43.5 22.3-36 12.1-73.2 12.5-108.5 1.3-107.7-34.3-154.3-160.3-94.8-256.2 20.4-32.8 53.4-59.4 89.4-71.9 22-7.6 39.9-10.2 64.2-9.4 26.9 1 47.2 6.1 71.1 18.1l9.1 4.6 1.4-2.3c4.6-7.3 16.6-28.8 16.6-29.6 0-1.8-24.3-13-38-17.5-16.6-5.5-34.4-9.2-51.4-10.6-14.2-1.1-17.1-1.1-32.8.1z"/><path d="m1216.7 961.5c-64.3 10.5-112.2 55.7-125.9 118.8-3 13.8-3.2 43.5-.5 57.2 11 54 47.4 96.2 99 114.4 16.8 5.9 27 7.5 48.7 7.5 21.3.1 27.9-.9 46-6.6 26.2-8.4 51.2-25.1 68.3-45.6 7.3-8.8 16.3-21.9 15.6-22.7-.4-.3-26.5-15.6-30-17.5-1.2-.7-2.9 1.1-7.8 8-26.1 36.9-71.8 54.7-115.9 45.1-34.3-7.5-63.4-30.7-78.3-62.5-20-42.8-11.3-92.9 22.1-126.6 19-19.2 42.1-30.1 70.2-33.1 17.1-1.9 36.8 1.1 53.8 8.1 4.1 1.7 8.5 3.8 9.9 4.6 1.9 1.3 2.5 1.4 3.6.2 1.6-1.8 17.5-29.6 17.5-30.7s-18-9.4-27.4-12.5c-14.4-4.8-25.9-6.7-43.6-7.1-11.5-.3-19.2 0-25.3 1zm-377.7 39.6c-122.4 15.1-206.3 131.3-181.5 251.5 17 82.4 82.1 147.2 164.7 163.8 74.8 15.2 153.9-12.4 201.9-70.4 9.4-11.4 22.1-30.2 21.1-31.2-1.5-1.4-30.7-17.8-31.3-17.6-.4.2-3.4 4.3-6.7 9.3-25.2 37.7-64.3 63.9-109.7 73.5-13 2.7-39.9 3.8-54.5 2.1-29-3.4-59.3-15.6-83.5-33.5-11.1-8.3-28.7-26.3-36.7-37.6-35.3-49.8-42-114.9-17.6-170.4 21.2-48.3 63.8-84.6 114.6-97.7 41.7-10.7 83.7-6.3 122.1 13 4.6 2.4 8.7 3.9 9.1 3.4.5-.6 13.7-23.3 17.7-30.5.5-1-18.8-10.6-30.3-15.1-10.4-4.1-27.7-8.8-40.9-11.2-10.7-2-47.1-2.8-58.5-1.4z"/><path d="m848.9 1061.1c-45 4.4-86.9 29.8-111.1 67.4-16.1 25-24.1 52.1-24.1 81.5 0 18.7 1.8 30.6 7.4 47.5 17.8 53.7 63.4 92.1 120.9 101.6 10.5 1.7 34.6 1.5 45.5-.4 41.7-7.4 76.3-29.6 100.2-64.3 2.9-4.3 5.3-8.2 5.3-8.8 0-1-27.7-17.7-30.5-18.4-.6-.1-3.2 2.8-5.8 6.7-10.8 15.7-26.2 29.1-43.1 37.4-39 19.3-83.8 14.7-119.1-12.1-19.8-15-33.9-36.5-40.6-61.9-3-11.1-3.7-34.6-1.5-46.4 8.4-44.7 40-78.3 84.7-90.1 7.3-1.9 10.9-2.2 26.9-2.2 16.8 0 19.4.2 28.2 2.6 5.3 1.5 13.6 4.5 18.4 6.7 4.8 2.3 9 4.1 9.4 4.1s3.8-5.3 7.5-11.8c3.7-6.4 7.9-13.6 9.2-15.8l2.4-4.2-9.3-4.5c-16.8-8.1-33.7-12.9-52.7-14.7-11-1.1-16.1-1.1-28.2.1z"/></svg>