<?xml version="1.0" encoding="utf-8" standalone="no"?>
<!DOCTYPE svg PUBLIC "-//W3C//DTD SVG 1.1//EN"
  "http://www.w3.org/Graphics/SVG/1.1/DTD/svg11.dtd">
<!-- Created with matplotlib (http://matplotlib.org/) -->
<svg height="132.28pt" version="1.1" viewBox="0 0 467.8 132.28" width="467.8pt" xmlns="http://www.w3.org/2000/svg" xmlns:xlink="http://www.w3.org/1999/xlink">
 <defs>
  <style type="text/css">
*{stroke-linecap:butt;stroke-linejoin:round;}
  </style>
 </defs>
 <g id="figure_1">
  <g id="patch_1">
   <path d="M 0 132.28 
L 467.8 132.28 
L 467.8 0 
L 0 0 
z
" style="fill:#ffffff;"/>
  </g>
  <g id="axes_1">
   <g id="patch_2">
    <path d="M 10.7 121.58 
L 457.1 121.58 
L 457.1 10.7 
L 10.7 10.7 
z
" style="fill:#ffffff;"/>
   </g>
   <g id="matplotlib.axis_1"/>
   <g id="matplotlib.axis_2"/>
   <g id="line2d_1">
    <path clip-path="url(#pf183d6b8fd)" d="M 10.7 15.74 
L 457.1 15.74 
" style="fill:none;stroke:#d3d3d3;stroke-linecap:square;stroke-width:1.5;"/>
   </g>
   <g id="line2d_2">
    <path clip-path="url(#pf183d6b8fd)" d="M 30.990909 15.74 
L 33.420958 23.221296 
L 35.851007 24.963536 
L 38.281056 38.411616 
L 40.711105 43.235387 
L 43.141154 36.901334 
L 45.571203 34.118291 
L 48.001252 32.27615 
L 50.431301 33.979836 
L 52.86135 29.276039 
L 55.291399 30.281597 
L 57.721448 33.146038 
L 60.151497 35.434262 
L 62.581546 33.867507 
L 65.011595 29.056284 
L 67.441644 30.529052 
L 69.871693 29.421781 
L 72.301742 27.409535 
L 74.731791 26.839098 
L 77.16184 33.781277 
L 79.591889 31.201745 
L 82.021938 35.759431 
L 84.451987 42.165765 
L 86.882036 44.17725 
L 89.312085 37.890733 
L 91.742134 37.345218 
L 94.172183 39.06074 
L 96.602232 18.30577 
L 99.032281 22.421824 
L 101.46233 21.335538 
L 106.322428 34.276613 
L 108.752477 32.147146 
L 111.182526 29.51929 
L 113.612575 30.586611 
L 116.042624 29.300554 
L 118.472673 31.412933 
L 120.902722 28.091999 
L 123.332771 32.196693 
L 125.76282 29.579512 
L 128.192869 30.999429 
L 130.622918 24.888508 
L 133.052967 21.841973 
L 135.483016 24.856609 
L 137.913065 24.124052 
L 140.343114 25.074099 
L 142.773163 26.593372 
L 145.203212 26.533682 
L 147.633261 24.571751 
L 150.06331 27.403224 
L 152.493359 21.518814 
L 154.923408 20.188682 
L 157.353457 20.389383 
L 162.213555 24.356973 
L 164.643604 22.045507 
L 169.503702 21.722035 
L 171.933751 52.856451 
L 174.3638 47.337869 
L 176.793849 43.559955 
L 179.223898 43.175278 
L 181.653947 44.093715 
L 184.083996 39.632726 
L 188.944094 43.953723 
L 191.374143 44.403909 
L 193.804192 41.529807 
L 196.234241 44.580144 
L 198.66429 48.383745 
L 205.954437 47.241582 
L 208.384486 46.960811 
L 210.814535 48.978164 
L 213.244584 59.75015 
L 215.674633 61.702708 
L 218.104682 57.690011 
L 220.534731 59.053517 
L 222.96478 60.213228 
L 225.394829 66.269025 
L 227.824878 86.475872 
L 232.684976 86.698127 
L 235.115024 91.897713 
L 237.545073 108.187932 
L 239.975122 88.630101 
L 242.405171 87.890475 
L 244.83522 86.113675 
L 247.265269 83.355066 
L 249.695318 89.446914 
L 252.125367 86.812794 
L 254.555416 85.585514 
L 256.985465 89.692215 
L 259.415514 96.309337 
L 261.845563 96.568127 
L 264.275612 91.963601 
L 266.705661 86.244581 
L 269.13571 86.113893 
L 271.565759 87.388965 
L 273.995808 86.567866 
L 276.425857 78.72825 
L 278.855906 78.502769 
L 281.285955 78.626293 
L 283.716004 83.534696 
L 286.146053 82.909074 
L 288.576102 76.668813 
L 291.006151 73.045778 
L 293.4362 78.215366 
L 295.866249 78.100062 
L 298.296298 79.620222 
L 300.726347 77.899144 
L 303.156396 76.972569 
L 305.586445 76.937851 
L 308.016494 80.916321 
L 310.446543 72.290211 
L 312.876592 73.002391 
L 315.306641 69.963922 
L 317.73669 68.933889 
L 320.166739 71.268363 
L 322.596788 71.392705 
L 325.026837 72.237844 
L 327.456886 71.0702 
L 329.886935 76.622222 
L 332.316984 81.032734 
L 334.747033 81.506863 
L 337.177082 78.179982 
L 339.607131 83.278511 
L 342.03718 80.517214 
L 344.467229 76.430215 
L 346.897278 75.69579 
L 349.327327 78.359843 
L 351.757376 77.740893 
L 354.187425 79.555611 
L 356.617474 77.175921 
L 359.047523 73.385497 
L 361.477572 74.425066 
L 363.907621 73.879449 
L 366.33767 80.437075 
L 368.767719 76.163951 
L 371.197768 78.258382 
L 373.627817 75.952764 
L 376.057866 76.319296 
L 378.487915 76.827823 
L 380.917964 76.191788 
L 383.348013 69.244883 
L 385.778062 71.849432 
L 388.208111 70.319846 
L 393.068209 69.743314 
L 395.498258 84.007117 
L 397.928307 79.435588 
L 400.358356 91.090862 
L 402.788405 88.23055 
L 405.218454 88.838161 
L 407.648503 100.258686 
L 410.078552 100.339578 
L 412.508601 99.784533 
L 414.93865 93.378634 
L 417.368699 94.3854 
L 419.798748 89.85377 
L 422.228797 91.800364 
L 424.658846 116.54 
L 427.088895 113.337255 
L 429.518944 115.923083 
L 431.948993 114.911506 
L 434.379042 115.167738 
L 436.809091 114.537904 
L 436.809091 114.537904 
" style="fill:none;stroke:#d62728;stroke-linecap:square;stroke-width:1.5;"/>
   </g>
   <g id="line2d_3">
    <path clip-path="url(#pf183d6b8fd)" d="M 436.809091 114.537904 
" style="fill:none;stroke:#d62728;stroke-linecap:square;stroke-width:1.5;"/>
    <defs>
     <path d="M 0 3 
C 0.795609 3 1.55874 2.683901 2.12132 2.12132 
C 2.683901 1.55874 3 0.795609 3 0 
C 3 -0.795609 2.683901 -1.55874 2.12132 -2.12132 
C 1.55874 -2.683901 0.795609 -3 0 -3 
C -0.795609 -3 -1.55874 -2.683901 -2.12132 -2.12132 
C -2.683901 -1.55874 -3 -0.795609 -3 0 
C -3 0.795609 -2.683901 1.55874 -2.12132 2.12132 
C -1.55874 2.683901 -0.795609 3 0 3 
z
" id="mf550fe162b" style="stroke:#d62728;"/>
    </defs>
    <g clip-path="url(#pf183d6b8fd)">
     <use style="fill:#d62728;stroke:#d62728;" x="436.809091" xlink:href="#mf550fe162b" y="114.537904"/>
    </g>
   </g>
  </g>
 </g>
 <defs>
  <clipPath id="pf183d6b8fd">
   <rect height="110.88" width="446.4" x="10.7" y="10.7"/>
  </clipPath>
 </defs>
</svg>
